<?xml version="1.0" encoding="utf-8"?>
<!-- Generator: Adobe Illustrator 21.1.0, SVG Export Plug-In . SVG Version: 6.00 Build 0)  -->
<svg version="1.1" id="Layer_1" xmlns="http://www.w3.org/2000/svg" xmlns:xlink="http://www.w3.org/1999/xlink" x="0px" y="0px"
	 viewBox="0 0 146 95" style="enable-background:new 0 0 146 95;" xml:space="preserve">
<style type="text/css">
	.st0{clip-path:url(#SVGID_2_);}
	.st1{opacity:0.1;clip-path:url(#SVGID_4_);}
	.st2{clip-path:url(#SVGID_6_);}
	.st3{opacity:0.1;clip-path:url(#SVGID_8_);}
	.st4{clip-path:url(#SVGID_10_);}
	.st5{opacity:0.1;clip-path:url(#SVGID_12_);}
	.st6{clip-path:url(#SVGID_14_);}
	.st7{opacity:0.1;clip-path:url(#SVGID_16_);}
</style>
<g>
	<defs>
		<path id="SVGID_1_" d="M121.6,88c-15.2-2-31.2-3.1-48.7-3.1c-17.4,0-33.4,1.1-48.6,3.1C25.5,66.4,15.7,46.6,0,31.8
			c0.4-0.4,1.7,0.7,3.9,1.5c6.5,2.3,16.5-1.3,21.9-1.3c9.7,0,17.4,7.5,17.4,16.5c0,6-4.6,10.7-9.5,10.7c-1.8,0-3.6-0.6-5-2.1
			l3.7-6.6L24.9,46c-1.1,2-2.1,4.5-2.1,6.9c0,3.4,1.8,7.3,4.1,9.9c7,8,19,2.7,24.9,8.9c2.3-8.9,17.5-10,17.5-23.1
			c0-5.8-1.8-9.8-6.8-12.8L58,43.4l6.4,3.7c-1,3.8-4.3,5.7-7.9,5.7c-7.2,0-10.6-6.1-10.6-13.1c0-5.1,1.5-9.7,4.9-13
			c-5.1-7.2,0.6-17.4,11.1-17C62.6,3.1,67.8,0,73,0c5.2,0,10.5,3.1,11.1,9.7c10.5-0.4,16.2,9.8,11.1,17c3.3,3.3,4.9,7.9,4.9,12.9
			c0,7.3-3.1,13.1-10.6,13.1c-3.6,0-6.9-1.9-7.9-5.7l6.5-3.7l-4.4-7.6c-4.7,2.8-6.8,6.7-6.8,12.8c0,13.1,15.2,14.2,17.5,23.1
			c6.7-7,21.6,1,27.6-13.2c0.7-1.6,1.4-3.5,1.4-5.5c0-2.5-1-5-2.1-6.9l-7.6,4.4l3.7,6.6c-1.4,1.4-3.2,2.1-5,2.1
			c-4.9,0-9.5-4.7-9.5-10.7c0-9,7.7-16.5,17.4-16.5c5.3,0,15.4,3.6,21.8,1.3c2.2-0.8,3.5-1.9,3.9-1.5
			C130.4,46.6,120.5,66.3,121.6,88z"/>
	</defs>
	<clipPath id="SVGID_2_">
		<use xlink:href="#SVGID_1_"  style="overflow:visible;"/>
	</clipPath>
	<g class="st0">
		<defs>
			<rect id="SVGID_3_" x="-115" y="-78" width="375" height="667"/>
		</defs>
		<clipPath id="SVGID_4_">
			<use xlink:href="#SVGID_3_"  style="overflow:visible;"/>
		</clipPath>
		<rect x="-5" y="-5" class="st1" width="156" height="98"/>
	</g>
</g>
<g>
	<defs>
		<path id="SVGID_5_" d="M123,95c-16.2-1.8-33.4-2.6-50-2.6c-16.2,0-33.4,0.8-50,2.6c0.1-0.5,0.2-1,0.3-1.5C38.4,91.9,55.6,91,73,91
			c17.4,0,34.6,0.9,49.7,2.5C122.8,94,122.9,94.5,123,95z"/>
	</defs>
	<clipPath id="SVGID_6_">
		<use xlink:href="#SVGID_5_"  style="overflow:visible;"/>
	</clipPath>
	<g class="st2">
		<defs>
			<rect id="SVGID_7_" x="-115" y="-78" width="375" height="667"/>
		</defs>
		<clipPath id="SVGID_8_">
			<use xlink:href="#SVGID_7_"  style="overflow:visible;"/>
		</clipPath>
		<rect x="18" y="86" class="st3" width="110" height="14"/>
	</g>
</g>
<g>
	<defs>
		<polygon id="SVGID_9_" points="112,29.6 107.6,22 100,26.4 104.4,34 		"/>
	</defs>
	<clipPath id="SVGID_10_">
		<use xlink:href="#SVGID_9_"  style="overflow:visible;"/>
	</clipPath>
	<g class="st4">
		<defs>
			<rect id="SVGID_11_" x="-115" y="-78" width="375" height="667"/>
		</defs>
		<clipPath id="SVGID_12_">
			<use xlink:href="#SVGID_11_"  style="overflow:visible;"/>
		</clipPath>
		<rect x="95" y="17" class="st5" width="22" height="22"/>
	</g>
</g>
<g>
	<defs>
		<polygon id="SVGID_13_" points="47,26.4 39.4,22 35,29.6 42.6,34 		"/>
	</defs>
	<clipPath id="SVGID_14_">
		<use xlink:href="#SVGID_13_"  style="overflow:visible;"/>
	</clipPath>
	<g class="st6">
		<defs>
			<rect id="SVGID_15_" x="-115" y="-78" width="375" height="667"/>
		</defs>
		<clipPath id="SVGID_16_">
			<use xlink:href="#SVGID_15_"  style="overflow:visible;"/>
		</clipPath>
		<rect x="30" y="17" class="st7" width="22" height="22"/>
	</g>
</g>
</svg>
